<svg xmlns="http://www.w3.org/2000/svg" version="1.1" xmlns:xlink="http://www.w3.org/1999/xlink" xmlns:svgjs="http://svgjs.dev/svgjs" width="1000" height="1000" viewBox="0 0 1000 1000"><rect width="1000" height="1000" fill="#ffffff"></rect><g transform="matrix(0.7,0,0,0.7,149.57575757575756,403.48731584844745)"><svg viewBox="0 0 396 110" data-background-color="#ffffff" preserveAspectRatio="xMidYMid meet" height="277" width="1000" xmlns="http://www.w3.org/2000/svg" xmlns:xlink="http://www.w3.org/1999/xlink"><g id="tight-bounds" transform="matrix(1,0,0,1,0.2400000000000091,-0.2480874187825748)"><svg viewBox="0 0 395.52 110.49617789495177" height="110.49617789495177" width="395.52"><g><svg viewBox="0 0 599.393158472976 167.45209614595208" height="110.49617789495177" width="395.52"><g transform="matrix(1,0,0,1,0,52.870677491448106)"><svg viewBox="0 0 395.52 61.710741163055864" height="61.710741163055864" width="395.52"><g id="textblocktransform"><svg viewBox="0 0 395.52 61.710741163055864" height="61.710741163055864" width="395.52" id="textblock"><g><svg viewBox="0 0 395.52 61.710741163055864" height="61.710741163055864" width="395.52"><g transform="matrix(1,0,0,1,0,0)"><svg width="395.52" viewBox="0.5 -29.649999618530273 263.07000732421875 41.04999923706055" height="61.710741163055864" data-palette-color="#000000"><path d="M1.9-2.7L1.9-2.7 5.25-2.4Q6.35-2.4 6.93-2.63 7.5-2.85 7.78-2.75 8.05-2.65 7.65-2.38 7.25-2.1 6.33-1.95 5.4-1.8 5.2-1.7L5.2-1.7Q6-1.4 6.95-0.85L6.95-0.85 9.6 0.8Q10.8-2 11.3-3.6L11.3-3.6Q11-3.45 10.5-3.38 10-3.3 10-3.65L10-3.65Q10-4 10.6-4.2L10.6-4.2 11.7-4.5Q12.5-6.8 13.48-10.08 14.45-13.35 14.45-13.4L14.45-13.4Q17.45-23 19.65-25.5 21.85-28 23.7-28.75 25.55-29.5 26.5-29.5L26.5-29.5Q29.15-29.5 30.7-27.4L30.7-27.4Q31.75-25.95 31.75-23.75L31.75-23.75Q31.75-19.6 28.93-15.5 26.1-11.4 22.1-8.58 18.1-5.75 13.8-4.25L13.8-4.25Q12.3-0.7 10.95 1.6L10.95 1.6Q18.6 6.5 21.8 7.55L21.8 7.55Q25.5 8.8 28.85 8.8L28.85 8.8Q32.5 8.8 34.9 6.8L34.9 6.8Q36.15 5.8 36.15 4.7 36.15 3.6 35.73 2.75 35.3 1.9 35.8 1.83 36.3 1.75 36.6 2.35L36.6 2.35Q37.35 4 37.35 5.75L37.35 5.75Q37.35 6.05 37.35 6.35L37.35 6.35Q37.3 8.25 35.6 9.7L35.6 9.7Q33.6 11.4 29.45 11.4L29.45 11.4Q26.65 11.4 24.53 10.65 22.4 9.9 21.18 9.43 19.95 8.95 18.13 7.78 16.3 6.6 15.55 6.1L15.55 6.1Q14.05 5.1 10.45 2.4L10.45 2.4Q7.85 6.9 5.85 6.9L5.85 6.9Q5.35 6.9 5.25 6.73 5.15 6.55 5.28 6.4 5.4 6.25 5.55 6.25L5.55 6.25Q7.2 6.1 9.25 1.6L9.25 1.6Q6.45-0.25 4.55-0.9L4.55-0.9Q2.85-0.2 2.2-0.2 1.55-0.2 1.35-0.25L1.35-0.25Q0.5-0.55 0.5-1.3L0.5-1.3Q0.5-2.35 1.8-2.7L1.8-2.7Q1.8-2.7 1.9-2.7ZM29.7-24.7L29.7-24.7Q29.7-28.5 26.85-28.5L26.85-28.5Q24.3-28.5 22.5-25.9L22.5-25.9Q20.5-23.1 19.6-20.68 18.7-18.25 18.3-17.1L18.3-17.1Q17.3-14.3 16.75-12L16.75-12Q15.1-7.4 14.35-5.65L14.35-5.65Q20.1-8.25 24.28-12.7 28.45-17.15 29.5-22.75L29.5-22.75Q29.7-23.8 29.7-24.7ZM38.05-5.5L38.05-5.5Q38.95-7.35 38.95-8.35 38.95-9.35 38.72-9.93 38.5-10.5 38.92-10.9 39.35-11.3 40-11.2L40-11.2Q41-10.95 41-8.95 41-6.95 38.65-3.7L38.65-3.7Q38.7-2.35 40.05-2.35 41.4-2.35 44.15-5.25L44.15-5.25Q45.45-6.75 45.77-7.2 46.1-7.65 46.35-7.53 46.6-7.4 46.6-7.3L46.6-7.3Q46.6-6.8 44.8-4.7L44.8-4.7Q41.95-1.2 39.75-1.2L39.75-1.2Q38.3-1.2 37.7-2.45L37.7-2.45Q36.7-1.4 35.75-0.5L35.75-0.5Q33.8 1.15 31.4 1.15L31.4 1.15Q30.05 1.15 29.15 0.5L29.15 0.5Q27.4-0.55 27.4-3.25L27.4-3.25Q27.4-6.2 29.4-9.25L29.4-9.25Q30.55-11.05 32.1-12.4L32.1-12.4Q34.55-14.55 36.75-14.55L36.75-14.55Q37.3-14.55 37.8-14.4L37.8-14.4Q39.3-13.9 39.3-12.5L39.3-12.5Q39.3-11.35 38.7-11.35L38.7-11.35Q38.45-11.45 38.45-12.1L38.45-12.1Q38.45-13 37.45-13L37.45-13Q35.7-13 32.95-9.8 30.2-6.6 29.65-3.35L29.65-3.35Q29.55-2.8 29.55-2.13 29.55-1.45 30-0.58 30.45 0.3 31.67 0.3 32.9 0.3 34.35-0.8 35.8-1.9 36.95-3.6L36.95-3.6 36.8-3.9Q36.6-4.7 37-5.2 37.4-5.7 38.05-5.5ZM47.85-11.15L47.85-11.15Q47.85-13.55 46.45-13.55L46.45-13.55Q46.15-13.55 45.82-13.48 45.5-13.4 45.5-13.6 45.5-13.8 45.8-14.1L45.8-14.1Q46.1-14.35 47.85-14.5L47.85-14.5Q49.95-14.5 50.47-13.9 51-13.3 51-12.7 51-12.1 50.07-9.73 49.15-7.35 49.1-7.25L49.1-7.25Q47.6-2.75 47.75-1.6L47.75-1.6Q52.25-7.65 53.65-9.15L53.65-9.15Q56.6-12.4 57.85-13.6L57.85-13.6Q60.75-16.3 62.95-17.25L62.95-17.25Q63.6-17.5 64.09-17.5L64.09-17.5Q65.75-17.5 66.34-16.5L66.34-16.5Q66.55-16.25 66.55-16.03 66.55-15.8 66.4-15.5 66.25-15.2 65.84-15.53 65.45-15.85 64.05-15.85L64.05-15.85Q61.75-15.85 56.35-10.45L56.35-10.45Q53.1-7.1 50.37-3.45 47.65 0.2 47.45 1.75L47.45 1.75Q47.45 2.15 46.7 2.15 45.95 2.15 45.57 1.53 45.2 0.9 45.2 0.48 45.2 0.05 45.25-0.28 45.3-0.6 46.25-3.95 47.2-7.3 47.45-8.4L47.45-8.4Q46.85-7.4 45.8-5.95L45.8-5.95Q45.45-5.55 45.22-5.73 45-5.9 45-6.05 45-6.2 45.1-6.4L45.1-6.4Q47.2-9.25 47.85-11.15ZM72.54-14.55L72.54-14.55Q75.24-14.55 75.24-11.95L75.24-11.95Q75.24-10.6 74.49-9.75L74.49-9.75Q73.24-7.9 70.44-6.53 67.64-5.15 65.69-5L65.69-5Q64.99-4.95 64.94-5.4L64.94-5.4Q64.89-5.6 65.07-5.65 65.24-5.7 65.34-5.7L65.34-5.7Q66.49-5.8 68.29-6.8L68.29-6.8Q71.64-8.6 73.19-10.5L73.19-10.5Q73.84-11.4 73.84-12.23 73.84-13.05 73.04-13.05L73.04-13.05Q72.39-13.05 71.29-12.5L71.29-12.5Q68.94-11.4 66.34-8.68 63.74-5.95 62.94-3.35L62.94-3.35Q62.69-2.55 62.69-1.78 62.69-1 63.34-0.3 63.99 0.4 65.34 0.4L65.34 0.4Q66.84 0.4 68.79-0.4L68.79-0.4Q74.44-2.7 77.49-7.35L77.49-7.35Q77.79-7.75 78.04-7.5L78.04-7.5Q78.24-7.4 78.24-7.25 78.24-7.1 78.09-6.9L78.09-6.9Q76.59-4.4 74.29-2.45L74.29-2.45Q69.84 1.35 65.64 1.35L65.64 1.35Q62.04 1.35 60.59-0.8L60.59-0.8Q60.04-1.65 60.04-2.85 60.04-4.05 60.69-5.7L60.69-5.7Q61.94-8.55 66.04-11.55 70.14-14.55 72.54-14.55ZM126.64-21.65L126.64-21.65Q125.44-21.65 123.44-23.4L123.44-23.4Q123.49-22.65 123.49-21.85L123.49-21.85Q123.49-17.85 121.89-12.1 120.29-6.35 117.06-1.5 113.84 3.35 110.49 3.35L110.49 3.35Q107.69 3.35 105.66 1.15 103.64-1.05 102.59-4.6L102.59-4.6Q100.69-11.35 100.69-19.15L100.69-19.15Q97.24-10.1 94.09-4.25L94.09-4.25Q88.79 5.15 83.89 6.65L83.89 6.65Q82.64 7.05 81.64 7.05 80.64 7.05 79.89 6.85L79.89 6.85Q77.84 6.15 77.34 4.05L77.34 4.05Q77.29 3.8 77.29 3.6 77.29 3.4 77.34 3.1 77.39 2.8 77.64 2.93 77.89 3.05 78.14 3.85L78.14 3.85Q78.49 5.2 79.89 5.55L79.89 5.55Q80.74 5.8 81.54 5.8 82.34 5.8 83.09 5.55L83.09 5.55Q87.89 4.05 92.59-4.5L92.59-4.5Q95.84-10.75 99.19-22.1L99.19-22.1Q96.44-19.6 92.69-19.35L92.69-19.35Q92.19-19.3 92.16-19.7 92.14-20.1 92.74-20.2L92.74-20.2Q94.89-20.4 97.19-22.45 99.49-24.5 100.64-27.15L100.64-27.15Q100.84-27.8 102.39-27.78 103.94-27.75 103.89-27.15L103.89-27.15Q103.69-26.6 103.44-24.5 103.19-22.4 103.19-20.35L103.19-20.35Q103.19-11.55 105.94-3.8L105.94-3.8Q107.89 1.65 110.89 1.65 113.89 1.65 116.49-3.6 119.09-8.85 120.06-14 121.04-19.15 121.04-21.23 121.04-23.3 120.84-24.33 120.64-25.35 119.49-28.7L119.49-28.7Q119.44-28.85 119.84-29.23 120.24-29.6 120.44-29.65L120.44-29.65Q121.39-29.65 122.21-28.5 123.04-27.35 123.89-25.8L123.89-25.8Q125.34-23 126.59-23L126.59-23 127.19-23.15Q127.64-23.15 127.74-22.65L127.74-22.65Q127.74-22.25 127.39-21.98 127.04-21.7 126.64-21.65ZM137.98-2.7L137.98-2.7 141.33-2.4Q142.43-2.4 143.01-2.63 143.58-2.85 143.86-2.75 144.13-2.65 143.73-2.38 143.33-2.1 142.41-1.95 141.48-1.8 141.28-1.7L141.28-1.7Q142.08-1.4 143.03-0.85L143.03-0.85 145.68 0.8Q146.88-2 147.38-3.6L147.38-3.6Q147.08-3.45 146.58-3.38 146.08-3.3 146.08-3.65L146.08-3.65Q146.08-4 146.68-4.2L146.68-4.2 147.78-4.5Q148.58-6.8 149.56-10.08 150.53-13.35 150.53-13.4L150.53-13.4Q153.53-23 155.73-25.5 157.93-28 159.78-28.75 161.63-29.5 162.58-29.5L162.58-29.5Q165.23-29.5 166.78-27.4L166.78-27.4Q167.83-25.95 167.83-23.75L167.83-23.75Q167.83-19.6 165.01-15.5 162.18-11.4 158.18-8.58 154.18-5.75 149.88-4.25L149.88-4.25Q148.38-0.7 147.03 1.6L147.03 1.6Q154.68 6.5 157.88 7.55L157.88 7.55Q161.58 8.8 164.93 8.8L164.93 8.8Q168.58 8.8 170.98 6.8L170.98 6.8Q172.23 5.8 172.23 4.7 172.23 3.6 171.81 2.75 171.38 1.9 171.88 1.83 172.38 1.75 172.68 2.35L172.68 2.35Q173.43 4 173.43 5.75L173.43 5.75Q173.43 6.05 173.43 6.35L173.43 6.35Q173.38 8.25 171.68 9.7L171.68 9.7Q169.68 11.4 165.53 11.4L165.53 11.4Q162.73 11.4 160.61 10.65 158.48 9.9 157.26 9.43 156.03 8.95 154.21 7.78 152.38 6.6 151.63 6.1L151.63 6.1Q150.13 5.1 146.53 2.4L146.53 2.4Q143.93 6.9 141.93 6.9L141.93 6.9Q141.43 6.9 141.33 6.73 141.23 6.55 141.36 6.4 141.48 6.25 141.63 6.25L141.63 6.25Q143.28 6.1 145.33 1.6L145.33 1.6Q142.53-0.25 140.63-0.9L140.63-0.9Q138.93-0.2 138.28-0.2 137.63-0.2 137.43-0.25L137.43-0.25Q136.58-0.55 136.58-1.3L136.58-1.3Q136.58-2.35 137.88-2.7L137.88-2.7Q137.88-2.7 137.98-2.7ZM165.78-24.7L165.78-24.7Q165.78-28.5 162.93-28.5L162.93-28.5Q160.38-28.5 158.58-25.9L158.58-25.9Q156.58-23.1 155.68-20.68 154.78-18.25 154.38-17.1L154.38-17.1Q153.38-14.3 152.83-12L152.83-12Q151.18-7.4 150.43-5.65L150.43-5.65Q156.18-8.25 160.36-12.7 164.53-17.15 165.58-22.75L165.58-22.75Q165.78-23.8 165.78-24.7ZM175.33-14.55L175.33-14.55Q178.03-14.55 178.03-11.95L178.03-11.95Q178.03-10.6 177.28-9.75L177.28-9.75Q176.03-7.9 173.23-6.53 170.43-5.15 168.48-5L168.48-5Q167.78-4.95 167.73-5.4L167.73-5.4Q167.68-5.6 167.86-5.65 168.03-5.7 168.13-5.7L168.13-5.7Q169.28-5.8 171.08-6.8L171.08-6.8Q174.43-8.6 175.98-10.5L175.98-10.5Q176.63-11.4 176.63-12.23 176.63-13.05 175.83-13.05L175.83-13.05Q175.18-13.05 174.08-12.5L174.08-12.5Q171.73-11.4 169.13-8.68 166.53-5.95 165.73-3.35L165.73-3.35Q165.48-2.55 165.48-1.78 165.48-1 166.13-0.3 166.78 0.4 168.13 0.4L168.13 0.4Q169.63 0.4 171.58-0.4L171.58-0.4Q177.23-2.7 180.28-7.35L180.28-7.35Q180.58-7.75 180.83-7.5L180.83-7.5Q181.03-7.4 181.03-7.25 181.03-7.1 180.88-6.9L180.88-6.9Q179.38-4.4 177.08-2.45L177.08-2.45Q172.63 1.35 168.43 1.35L168.43 1.35Q164.83 1.35 163.38-0.8L163.38-0.8Q162.83-1.65 162.83-2.85 162.83-4.05 163.48-5.7L163.48-5.7Q164.73-8.55 168.83-11.55 172.93-14.55 175.33-14.55ZM186.28-13L186.28-13Q186.28-12.65 185.73-11.48 185.18-10.3 182.58-3.4L182.58-3.4Q184.38-5.6 187.13-8.5L187.13-8.5Q192.68-14.3 194.78-14.3L194.78-14.3Q195.23-14.3 195.65-14.05 196.08-13.8 196.08-12.93 196.08-12.05 195.53-10.98 194.98-9.9 194.28-8.35 193.58-6.8 193.33-6.4L193.33-6.4Q197.53-10.2 199.68-11.03 201.83-11.85 202.53-11.85 203.23-11.85 203.23-11.35L203.23-11.35Q203.23-11.05 202.48-9.9 201.73-8.75 200.83-6.5 199.93-4.25 199.83-3.35 199.73-2.45 199.73-1.75 199.73-1.05 200.13-0.6L200.13-0.6Q200.88 0.2 202.18-0.5 203.48-1.2 205.8-3.3 208.13-5.4 209.53-7.4L209.53-7.4Q209.73-7.65 210-7.53 210.28-7.4 210.28-7.28 210.28-7.15 210.18-7L210.18-7Q209.43-5.65 207.48-3.55L207.48-3.55Q204.28-0.1 202.13 0.7L202.13 0.7Q199.78 1.5 198.73 0.9 197.68 0.3 197.43-0.45 197.18-1.2 197.18-1.95L197.18-1.95Q197.18-4.3 198.1-6.65 199.03-9 199.58-9.85L199.58-9.85Q197.68-9.05 196.33-7.85L196.33-7.85Q194.28-6.05 193.03-4.7L193.03-4.7 192.03-3.6Q191.58-2.5 190.45-2.35 189.33-2.2 189.38-3.1L189.38-3.1Q189.48-4.05 191.23-7.35 192.98-10.65 192.98-11.03 192.98-11.4 192.58-11.4L192.58-11.4Q191.68-11.4 189.33-9.35L189.33-9.35Q187.78-7.9 184.75-3.88 181.73 0.15 181.33 0.4L181.33 0.4Q179.53 1.3 179.08 1.3 178.63 1.3 178.63 1.15 178.63 1 178.78 0.7 178.93 0.4 181.83-8L181.83-8Q180.73-6.3 179.83-5.4L179.83-5.4Q179.43-4.95 179.43-5.58 179.43-6.2 179.78-6.65L179.78-6.65Q182.03-9.6 183.08-11.65L183.08-11.65Q183.38-13.4 184.28-13.7L184.28-13.7Q184.83-13.9 185.55-13.7 186.28-13.5 186.28-13ZM219.28-5.5L219.28-5.5Q220.18-7.35 220.18-8.35 220.18-9.35 219.95-9.93 219.73-10.5 220.15-10.9 220.58-11.3 221.23-11.2L221.23-11.2Q222.23-10.95 222.23-8.95 222.23-6.95 219.88-3.7L219.88-3.7Q219.93-2.35 221.28-2.35 222.63-2.35 225.38-5.25L225.38-5.25Q226.68-6.75 227-7.2 227.33-7.65 227.58-7.53 227.83-7.4 227.83-7.3L227.83-7.3Q227.83-6.8 226.03-4.7L226.03-4.7Q223.18-1.2 220.98-1.2L220.98-1.2Q219.53-1.2 218.93-2.45L218.93-2.45Q217.93-1.4 216.98-0.5L216.98-0.5Q215.03 1.15 212.63 1.15L212.63 1.15Q211.28 1.15 210.38 0.5L210.38 0.5Q208.63-0.55 208.63-3.25L208.63-3.25Q208.63-6.2 210.63-9.25L210.63-9.25Q211.78-11.05 213.33-12.4L213.33-12.4Q215.78-14.55 217.98-14.55L217.98-14.55Q218.53-14.55 219.03-14.4L219.03-14.4Q220.53-13.9 220.53-12.5L220.53-12.5Q220.53-11.35 219.93-11.35L219.93-11.35Q219.68-11.45 219.68-12.1L219.68-12.1Q219.68-13 218.68-13L218.68-13Q216.93-13 214.18-9.8 211.43-6.6 210.88-3.35L210.88-3.35Q210.78-2.8 210.78-2.13 210.78-1.45 211.23-0.58 211.68 0.3 212.9 0.3 214.13 0.3 215.58-0.8 217.03-1.9 218.18-3.6L218.18-3.6 218.03-3.9Q217.83-4.7 218.23-5.2 218.63-5.7 219.28-5.5ZM240.37-14.2L240.37-14.2Q241.52-14.2 241.52-12.98 241.52-11.75 240.37-9.6 239.22-7.45 238.67-6.1L238.67-6.1Q237.72-3.8 237.72-2.43 237.72-1.05 238.12-0.6L238.12-0.6Q238.87 0.2 240.17-0.53 241.47-1.25 243.8-3.33 246.12-5.4 247.52-7.4L247.52-7.4Q247.72-7.65 248-7.53 248.27-7.4 248.27-7.28 248.27-7.15 248.17-7L248.17-7Q247.42-5.65 245.47-3.55 243.52-1.45 241.72-0.18 239.92 1.1 238.17 1.1L238.17 1.1Q236.47 1.05 235.77 0.33 235.07-0.4 235.07-1.5 235.07-2.6 235.27-3.63 235.47-4.65 236.02-6L236.02-6Q236.92-8.15 237.6-9.35 238.27-10.55 238.27-10.93 238.27-11.3 237.87-11.3L237.87-11.3Q237.07-11.3 234.82-9.35L234.82-9.35Q233.27-7.9 230.25-3.88 227.22 0.15 226.82 0.4L226.82 0.4Q225.02 1.3 224.57 1.3 224.12 1.3 224.12 1.15 224.12 1 224.22 0.73 224.32 0.45 225.2-2 226.07-4.45 227.1-7.38 228.12-10.3 228.35-10.9 228.57-11.5 228.65-11.93 228.72-12.35 228.82-12.65 228.92-12.95 229.2-13.33 229.47-13.7 229.92-13.73 230.37-13.75 231.07-13.63 231.77-13.5 231.77-13L231.77-13Q231.77-12.65 231.22-11.48 230.67-10.3 228.07-3.4L228.07-3.4Q229.87-5.6 232.62-8.47 235.37-11.35 237.27-12.85L237.27-12.85Q239.17-14.2 240.37-14.2ZM247.42 0.5L247.42 0.5Q246.77 1.25 247.15 1.7 247.52 2.15 248 2.15 248.47 2.15 248.97 2L248.97 2Q251.12 1.35 253.15-0.58 255.17-2.5 255.17-4.5L255.17-4.5Q255.17-5.6 252.72-6.9L252.72-6.9Q251.57-7.5 251.42-7.6L251.42-7.6Q250.07-8.5 249.72-9.4L249.72-9.4Q249.02-8.2 247.47-5.95L247.47-5.95Q247.12-5.55 246.82-5.78 246.52-6 246.77-6.4L246.77-6.4Q248.82-9.2 249.47-11.1L249.47-11.1Q249.82-13.85 253.47-16.05 257.12-18.25 260.12-18.25L260.12-18.25Q262.02-18.25 262.8-17.57 263.57-16.9 263.57-16.25 263.57-15.6 263.19-14.75 262.82-13.9 261.67-13.15L261.67-13.15Q261.37-12.95 261.17-13.25L261.17-13.25Q261.07-13.55 261.6-14.08 262.12-14.6 262.27-15.5 262.42-16.4 261.47-16.6L261.47-16.6Q261.32-16.6 261.17-16.6L261.17-16.6Q259.22-16.6 256.3-15.15 253.37-13.7 251.72-11.4L251.72-11.4Q251.07-10.55 251.07-9.68 251.07-8.8 252.27-8.1L252.27-8.1Q252.77-7.8 253.97-7.15 255.17-6.5 255.67-6.2 256.17-5.9 256.87-5.25 257.57-4.6 257.62-4.05L257.62-4.05Q257.87-2.55 256.22-0.75L256.22-0.75Q253.87 1.85 249.22 2.9L249.22 2.9Q248.17 3.15 247.1 3.15 246.02 3.15 245.62 2.35L245.62 2.35Q245.47 2.15 245.47 1.73 245.47 1.3 246.27 0.35L246.27 0.35Q247.02-0.4 248.67-1.1L248.67-1.1Q248.82-1.15 248.92-1.05 249.02-0.95 248.97-0.8 248.92-0.65 248.45-0.45 247.97-0.25 247.42 0.5Z" opacity="1" transform="matrix(1,0,0,1,0,0)" fill="#000000" class="undefined-text-0" data-fill-palette-color="primary" id="text-0"></path></svg></g></svg></g></svg></g></svg></g><g transform="matrix(1,0,0,1,431.94106232702393,0)"><svg viewBox="0 0 167.45209614595208 167.45209614595208" height="167.45209614595208" width="167.45209614595208"><g><svg viewBox="0 0 167.45209614595208 167.45209614595208" height="167.45209614595208" width="167.45209614595208"><g transform="matrix(1,0,0,1,45.63808827997141,44.25721050340789)"><svg viewBox="0 0 76.17591958600926 78.9376751391363" height="78.9376751391363" width="76.17591958600926"><g><svg xmlns="http://www.w3.org/2000/svg" xmlns:xlink="http://www.w3.org/1999/xlink" version="1.1" x="0" y="0" viewBox="1.7556297779083252 0.9110000133514404 46.4893684387207 48.17483901977539" enable-background="new 0 0 50 50" xml:space="preserve" height="78.9376751391363" width="76.17591958600926" class="icon-s-0" data-fill-palette-color="accent" id="s-0"><g fill="#000000" data-fill-palette-color="accent"><g fill="#000000" data-fill-palette-color="accent"><path fill="#000000" d="M46.969 40.402c-5.086 4.664-11.689 7.076-18.587 6.779-6.9-0.297-13.271-3.266-17.938-8.355C5.776 33.74 3.367 27.139 3.666 20.24c0.295-6.898 3.262-13.271 8.352-17.938l-1.275-1.391c-5.46 5.01-8.642 11.844-8.961 19.248-0.319 7.402 2.265 14.48 7.276 19.943 5.006 5.457 11.842 8.639 19.242 8.957 7.401 0.322 14.485-2.262 19.945-7.271L46.969 40.402z" data-fill-palette-color="accent"></path></g><path fill="#000000" d="M6.525 26.736c0.892 3.816 2.746 7.467 5.588 10.563 2.6 2.832 5.733 4.889 9.104 6.145l7.74-21.564L6.525 26.736z" data-fill-palette-color="accent"></path><path fill="#000000" d="M31.405 23.438l-7.479 20.836c7.384 1.787 15.494-0.02 21.515-5.541L31.405 23.438z" data-fill-palette-color="accent"></path><path fill="#000000" d="M13.544 3.973C7.79 9.252 5.254 16.734 6.049 23.947l21.547-4.664L13.544 3.973z" data-fill-palette-color="accent"></path><path fill="#000000" d="M37.108 22.746c0.125-0.875-0.351-1.67-1.627-1.855-1.28-0.184-3.005 1.184-3.005 1.184s1.267 1.801 2.542 1.984C36.298 24.242 36.979 23.621 37.108 22.746z" data-fill-palette-color="accent"></path><path fill="#000000" d="M35.743 14.998c-0.846-0.609-1.966-0.502-2.927 0.828-0.96 1.33-0.549 3.992-0.549 3.992s2.655-0.453 3.613-1.785C36.843 16.703 36.591 15.609 35.743 14.998z" data-fill-palette-color="accent"></path><path fill="#000000" d="M28.806 13.639c-1.027 0.18-1.735 1.055-1.454 2.676 0.28 1.617 2.471 3.182 2.471 3.182s1.532-2.213 1.252-3.83S29.835 13.461 28.806 13.639z" data-fill-palette-color="accent"></path></g></svg></g></svg></g><path d="M5.268 105.784v0l0.302 1.173c0.089 0.248 0.181 0.426 0.277 0.535 0.099 0.115 0.149 0.205 0.15 0.269-0.003 0.073-0.052 0.076-0.147 0.01-0.089-0.069-0.19-0.201-0.303-0.397-0.107-0.198-0.181-0.315-0.223-0.351v0c0 0.201-0.025 0.432-0.074 0.693v0l-0.232 1.095c0.727 0.048 1.293 0.064 1.696 0.049v0c-0.057-0.059-0.115-0.142-0.176-0.249-0.06-0.108-0.049-0.176 0.034-0.206v0c0.076-0.027 0.162 0.021 0.256 0.145v0l0.239 0.334c0.585-0.009 1.286-0.034 2.103-0.075 0.817-0.041 1.232-0.064 1.244-0.069v0c2.409-0.102 3.985-0.006 4.729 0.287 0.746 0.3 1.278 0.625 1.598 0.977 0.315 0.36 0.512 0.649 0.589 0.865v0c0.214 0.598 0.148 1.155-0.197 1.674v0c-0.246 0.354-0.618 0.619-1.113 0.796v0c-0.935 0.335-1.98 0.35-3.136 0.047-1.156-0.304-2.214-0.796-3.175-1.478-0.965-0.673-1.79-1.435-2.476-2.287v0c-0.922-0.05-1.698-0.135-2.328-0.253v0c-0.487 2.125-0.719 3.592-0.695 4.401v0c0.012 0.935 0.153 1.781 0.425 2.538v0c0.296 0.826 0.766 1.429 1.411 1.807v0c0.331 0.204 0.621 0.262 0.868 0.174 0.248-0.089 0.45-0.215 0.607-0.379 0.157-0.164 0.264-0.195 0.322-0.094 0.06 0.108 0.033 0.221-0.082 0.342v0c-0.31 0.297-0.661 0.516-1.056 0.657v0c-0.07 0.025-0.14 0.05-0.21 0.076v0c-0.428 0.146-0.877 0.084-1.346-0.186v0c-0.543-0.315-0.982-0.94-1.317-1.874v0c-0.228-0.636-0.344-1.222-0.349-1.757-0.001-0.545 0.003-0.973 0.013-1.285 0.008-0.318 0.071-0.732 0.191-1.241 0.113-0.507 0.197-0.863 0.252-1.069v0c0.106-0.425 0.319-1.154 0.637-2.186v0c-1.227-0.221-1.921-0.557-2.082-1.009v0c-0.041-0.114-0.046-0.188-0.014-0.22 0.029-0.039 0.067-0.053 0.114-0.041 0.043 0.02 0.07 0.047 0.082 0.078v0c0.166 0.364 0.841 0.596 2.024 0.695v0c0.192-0.786 0.285-1.418 0.279-1.896v0c-0.298-0.331-0.473-0.569-0.525-0.716-0.052-0.146-0.08-0.244-0.084-0.293v0c0.002-0.216 0.085-0.353 0.251-0.412v0c0.242-0.086 0.453 0.003 0.634 0.268v0c0 0 0.005 0.013 0.013 0.038zM16.098 112.537v0c0.858-0.307 1.171-0.785 0.939-1.434v0c-0.205-0.572-0.672-0.957-1.403-1.154v0c-0.797-0.224-1.506-0.34-2.125-0.348-0.62-0.008-1.077-0.013-1.371-0.014v0c-0.715 0.005-1.357 0.037-1.924 0.096v0c-1.168 0.002-1.98-0.012-2.436-0.042v0c1.049 1.088 2.245 1.925 3.589 2.513 1.348 0.579 2.696 0.76 4.046 0.542v0c0.253-0.033 0.482-0.086 0.685-0.159zM15.285 126.226v0c0.493-0.044 0.844-0.128 1.052-0.254 0.203-0.122 0.351-0.242 0.445-0.361 0.088-0.116 0.199-0.155 0.332-0.117 0.139 0.035 0.237 0.126 0.293 0.273v0c0.073 0.24-0.096 0.483-0.507 0.73-0.411 0.247-1.096 0.327-2.053 0.239v0c-0.271 0.178-0.323 0.406-0.156 0.685 0.167 0.278 0.719 0.522 1.655 0.731v0c0.467 0.082 0.765 0.127 0.896 0.136 0.134 0.014 0.203 0.056 0.205 0.125 0.008 0.066 0.001 0.106-0.022 0.12v0c-0.098 0.059-0.476 0.034-1.133-0.077v0c-1.069-0.154-1.741-0.46-2.015-0.917v0c-0.177-0.295-0.177-0.583 0.002-0.864v0c-0.336-0.074-0.655-0.154-0.959-0.239v0c-0.581-0.195-1.02-0.538-1.315-1.03v0c-0.167-0.278-0.239-0.55-0.217-0.815v0c0.001-0.497 0.28-0.912 0.836-1.246v0c0.602-0.361 1.344-0.523 2.225-0.484v0c0.51 0.009 0.999 0.09 1.468 0.241v0c0.746 0.246 1.254 0.594 1.525 1.046v0c0.066 0.11 0.116 0.226 0.149 0.348v0c0.08 0.369-0.025 0.641-0.314 0.814v0c-0.237 0.142-0.393 0.153-0.466 0.032v0c-0.008-0.066 0.054-0.139 0.188-0.219v0c0.185-0.111 0.217-0.268 0.095-0.471v0c-0.219-0.365-0.827-0.63-1.824-0.796-0.995-0.175-1.863-0.119-2.603 0.169v0c-0.12 0.049-0.25 0.115-0.39 0.198-0.139 0.083-0.273 0.227-0.403 0.43-0.124 0.2-0.111 0.425 0.039 0.674 0.153 0.255 0.431 0.462 0.833 0.622 0.412 0.162 0.863 0.258 1.354 0.287v0l0.069-0.101c0.134-0.144 0.28-0.203 0.436-0.179 0.153 0.019 0.246 0.108 0.28 0.27zM24.649 135.529v0c0.427-0.394 0.528-0.712 0.304-0.956v0c-0.05-0.055-0.108-0.102-0.174-0.143-0.07-0.046-0.087-0.085-0.052-0.117 0.035-0.032 0.105-0.046 0.209-0.042v0c0.09 0.008 0.29 0.155 0.599 0.44v0c0.344 0.372 0.507 0.653 0.489 0.844-0.022 0.185-0.087 0.329-0.196 0.429-0.104 0.096-0.438 0.257-1.001 0.483-0.573 0.226-0.871 0.34-0.896 0.345v0c-1.037 0.47-1.645 0.811-1.825 1.023v0c1.8-0.191 2.945-0.284 3.437-0.278v0c1.052-0.015 1.785-0.008 2.2 0.023v0c0.948 0.071 1.685 0.223 2.211 0.454v0c0.15 0.073 0.266 0.154 0.348 0.243v0c0.27 0.293 0.364 0.574 0.282 0.843v0c-0.008 0.071-0.031 0.125-0.071 0.162-0.04 0.037-0.098 0.068-0.176 0.094-0.082 0.021-0.125-0.031-0.13-0.156-0.01-0.12-0.129-0.304-0.357-0.552v0c-0.371-0.402-1.473-0.639-3.305-0.713v0c-1.122-0.03-2.225 0.009-3.309 0.119-1.089 0.114-1.786 0.28-2.091 0.497v0c-0.069 0.064-0.164 0.032-0.283-0.097-0.124-0.134-0.161-0.284-0.111-0.449 0.045-0.17 0.105-0.29 0.179-0.359 0.074-0.069 0.146-0.126 0.214-0.17 0.064-0.04 0.469-0.249 1.215-0.625 0.742-0.381 1.232-0.641 1.472-0.78v0c-0.275 0.061-0.626 0.118-1.053 0.173v0c-0.129 0-0.197-0.034-0.204-0.102-0.002-0.072 0.01-0.119 0.034-0.142 0.025-0.023 0.064-0.04 0.117-0.052v0c0.845-0.1 1.486-0.246 1.924-0.44zM38.846 146.79v0c0.519 0.388 0.593 0.831 0.221 1.328v0c-0.194 0.26-0.424 0.416-0.691 0.469v0c-0.51 0.175-1.132 0.196-1.866 0.061-0.739-0.139-1.305-0.334-1.699-0.586v0c-0.143-0.09-0.188-0.183-0.134-0.277v0c0.023-0.042 0.055-0.056 0.095-0.043 0.041 0.013 0.072 0.028 0.093 0.045v0c0.234 0.149 0.597 0.256 1.089 0.32v0c0.902 0.134 1.638 0.131 2.206-0.009v0c0.254-0.08 0.439-0.199 0.556-0.356 0.121-0.162 0.103-0.302-0.053-0.419v0c-0.124-0.093-0.333-0.164-0.625-0.214v0c-0.607-0.124-1.358-0.112-2.252 0.038-0.89 0.153-1.599 0.42-2.128 0.8v0c-0.156 0.119-0.291 0.255-0.404 0.406-0.109 0.146-0.152 0.333-0.128 0.562 0.023 0.228 0.165 0.439 0.424 0.633v0c0.287 0.214 0.673 0.385 1.16 0.512v0c1.419 0.368 2.756 0.326 4.013-0.126v0c0.111-0.035 0.174-0.013 0.191 0.066v0c0.022 0.05 0.022 0.088 0.002 0.116-0.024 0.032-0.064 0.058-0.12 0.075v0c-0.646 0.267-1.331 0.422-2.053 0.464v0c-1.4 0.092-2.506-0.165-3.318-0.77v0c-0.693-0.517-1.023-1.084-0.992-1.702v0c0.017-0.249 0.11-0.486 0.28-0.714 0.174-0.233 0.442-0.462 0.805-0.688v0c0.652-0.365 1.588-0.542 2.811-0.531 1.213 0.012 2.052 0.192 2.517 0.54zM74.097 157.739v0c-0.278-0.058-0.608-0.344-0.991-0.858v0c-0.031 0.18-0.065 0.362-0.103 0.547v0c-0.197 0.945-0.624 2.053-1.282 3.324-0.651 1.272-1.476 2.4-2.474 3.385-0.997 0.979-1.889 1.386-2.675 1.223v0c-0.654-0.136-1.166-0.512-1.535-1.127-0.369-0.615-0.589-1.364-0.659-2.248v0c-0.119-1.68 0.012-3.439 0.394-5.277v0c-1.256 1.959-2.398 3.55-3.424 4.771v0c-1.702 1.949-3.165 2.979-4.388 3.09v0c-0.318 0.037-0.593 0.032-0.825-0.016-0.238-0.05-0.437-0.119-0.598-0.207v0c-0.45-0.259-0.682-0.649-0.698-1.17v0c-0.001-0.062 0.004-0.117 0.013-0.163 0.01-0.046 0.029-0.104 0.057-0.174 0.027-0.063 0.067-0.076 0.122-0.037 0.054 0.039 0.091 0.16 0.11 0.364v0c0.013 0.334 0.177 0.575 0.491 0.723v0c0.186 0.101 0.371 0.17 0.557 0.209 0.192 0.04 0.38 0.048 0.564 0.025v0c1.203-0.115 2.566-1.063 4.088-2.843v0c1.072-1.308 2.279-3.212 3.621-5.712v0c-0.769 0.447-1.599 0.609-2.491 0.485v0c-0.122-0.012-0.176-0.064-0.164-0.159 0.013-0.094 0.091-0.14 0.235-0.137v0c0.519 0.06 1.099-0.095 1.742-0.465 0.636-0.371 1.154-0.839 1.555-1.404v0c0.078-0.142 0.298-0.172 0.66-0.09 0.369 0.084 0.532 0.194 0.49 0.329v0c-0.074 0.123-0.191 0.422-0.353 0.899-0.163 0.483-0.294 0.966-0.394 1.449v0c-0.429 2.063-0.51 4.074-0.242 6.034v0c0.189 1.377 0.637 2.14 1.345 2.287 0.701 0.146 1.487-0.335 2.359-1.444 0.866-1.11 1.54-2.245 2.023-3.407 0.477-1.163 0.765-1.986 0.866-2.468 0.102-0.489 0.155-0.861 0.159-1.115 0.003-0.248-0.049-0.793-0.156-1.637v0c-0.006-0.036 0.05-0.09 0.168-0.161 0.11-0.067 0.19-0.102 0.24-0.106v0c0.225 0.047 0.405 0.226 0.54 0.537 0.135 0.311 0.268 0.67 0.396 1.076v0c0.2 0.731 0.448 1.128 0.746 1.19v0l0.221-0.017c0.106 0.022 0.156 0.095 0.151 0.218v0c-0.019 0.093-0.075 0.164-0.169 0.213-0.093 0.05-0.191 0.071-0.292 0.064zM96.663 164.399v0l1.199-0.169c0.256-0.061 0.444-0.133 0.563-0.217 0.126-0.085 0.22-0.125 0.284-0.119 0.072 0.011 0.07 0.06-0.007 0.147-0.078 0.081-0.221 0.167-0.428 0.258-0.209 0.084-0.333 0.145-0.373 0.182v0c0.2 0.022 0.427 0.073 0.681 0.151v0l1.062 0.352c0.129-0.717 0.208-1.277 0.237-1.68v0c-0.065 0.05-0.154 0.099-0.267 0.147-0.114 0.048-0.181 0.029-0.201-0.057v0c-0.019-0.079 0.039-0.158 0.172-0.238v0l0.359-0.2c0.056-0.582 0.109-1.282 0.159-2.098 0.05-0.817 0.073-1.232 0.07-1.245v0c0.166-2.406 0.436-3.961 0.81-4.668 0.381-0.708 0.764-1.201 1.149-1.479 0.393-0.274 0.702-0.437 0.925-0.49v0c0.618-0.146 1.165-0.019 1.641 0.382v0c0.324 0.284 0.547 0.682 0.668 1.195v0c0.229 0.966 0.128 2.006-0.302 3.121-0.43 1.115-1.037 2.112-1.821 2.992-0.776 0.885-1.625 1.62-2.548 2.206v0c-0.152 0.91-0.322 1.672-0.511 2.286v0c2.058 0.72 3.49 1.113 4.297 1.179v0c0.931 0.092 1.787 0.045 2.569-0.139v0c0.854-0.202 1.505-0.603 1.954-1.202v0c0.24-0.307 0.329-0.588 0.268-0.844-0.061-0.256-0.164-0.471-0.308-0.645-0.145-0.174-0.164-0.284-0.058-0.33 0.114-0.048 0.224-0.008 0.33 0.119v0c0.261 0.341 0.44 0.715 0.537 1.123v0c0.017 0.072 0.034 0.145 0.051 0.216v0c0.098 0.442-0.014 0.881-0.333 1.318v0c-0.373 0.505-1.043 0.871-2.009 1.1v0c-0.657 0.156-1.252 0.206-1.786 0.152-0.541-0.059-0.967-0.111-1.275-0.156-0.316-0.043-0.72-0.152-1.212-0.327-0.491-0.168-0.836-0.291-1.035-0.37v0c-0.411-0.153-1.111-0.445-2.102-0.876v0c-0.356 1.194-0.767 1.847-1.233 1.957v0c-0.118 0.028-0.192 0.025-0.221-0.01-0.036-0.033-0.045-0.073-0.028-0.118 0.025-0.041 0.054-0.065 0.087-0.073v0c0.38-0.125 0.685-0.769 0.916-1.934v0c-0.76-0.278-1.378-0.441-1.854-0.488v0c-0.362 0.259-0.618 0.407-0.769 0.443-0.151 0.036-0.251 0.053-0.301 0.05v0c-0.214-0.026-0.342-0.124-0.382-0.295v0c-0.059-0.25 0.053-0.45 0.337-0.6v0c0 0 0.013-0.003 0.039-0.009zM104.577 154.386v0c-0.21-0.887-0.65-1.251-1.32-1.093v0c-0.591 0.14-1.026 0.562-1.303 1.267v0c-0.311 0.768-0.505 1.459-0.582 2.073-0.077 0.615-0.132 1.069-0.167 1.362v0c-0.074 0.712-0.114 1.352-0.117 1.922v0c-0.128 1.161-0.232 1.967-0.313 2.416v0c1.197-0.922 2.163-2.018 2.896-3.288 0.725-1.275 1.055-2.595 0.988-3.96v0c-0.005-0.256-0.032-0.488-0.082-0.699zM117.135 153.575v0c0.59-0.269 1.014-0.12 1.271 0.445v0c0.134 0.295 0.16 0.572 0.079 0.832v0c-0.092 0.532-0.374 1.086-0.845 1.665-0.478 0.581-0.921 0.983-1.332 1.207v0c-0.148 0.082-0.251 0.077-0.308-0.016v0c-0.026-0.04-0.023-0.075 0.009-0.104 0.031-0.029 0.059-0.049 0.084-0.06v0c0.244-0.133 0.512-0.4 0.804-0.801v0c0.552-0.726 0.904-1.372 1.054-1.937v0c0.052-0.261 0.037-0.481-0.043-0.659-0.084-0.184-0.215-0.236-0.394-0.155v0c-0.141 0.064-0.304 0.212-0.487 0.444v0c-0.401 0.472-0.752 1.136-1.052 1.993-0.294 0.854-0.402 1.604-0.323 2.25v0c0.029 0.194 0.083 0.378 0.161 0.55 0.076 0.166 0.219 0.294 0.431 0.382 0.211 0.089 0.464 0.067 0.759-0.067v0c0.326-0.148 0.661-0.405 1.007-0.77v0c1.006-1.066 1.613-2.259 1.822-3.578v0c0.022-0.114 0.072-0.159 0.15-0.135v0c0.054 0.005 0.088 0.023 0.102 0.054 0.017 0.037 0.02 0.084 0.009 0.141v0c-0.077 0.695-0.271 1.37-0.582 2.023v0c-0.593 1.272-1.351 2.117-2.273 2.537v0c-0.787 0.358-1.443 0.375-1.969 0.05v0c-0.21-0.135-0.373-0.331-0.491-0.589-0.12-0.264-0.192-0.61-0.216-1.037v0c-0.006-0.747 0.29-1.653 0.888-2.719 0.595-1.057 1.156-1.706 1.685-1.946zM128.614 147.33v0c0.049 0.065 0.106 0.25 0.17 0.558 0.07 0.303 0.355 1.304 0.857 3v0c0.025-0.681 0.091-1.498 0.196-2.452v0c0.217-1.912 0.527-3.022 0.93-3.329v0c0.086-0.065 0.188-0.105 0.305-0.117 0.117-0.013 0.239 0.064 0.366 0.23 0.127 0.167 0.217 0.391 0.27 0.673 0.048 0.286 0.117 0.628 0.207 1.026 0.09 0.398 0.142 0.655 0.155 0.773v0c0.25-1.344 0.52-2.249 0.811-2.716 0.295-0.471 0.507-0.755 0.636-0.854 0.134-0.102 0.238-0.105 0.312-0.008v0c0.041 0.054 0.075 0.244 0.103 0.571 0.022 0.331 0.111 0.776 0.266 1.337 0.155 0.561 0.287 0.935 0.397 1.124 0.115 0.184 0.223 0.344 0.325 0.478 0.102 0.134 0.224 0.216 0.364 0.244v0c0.26 0.04 0.462-0.101 0.607-0.423 0.145-0.322 0.289-0.852 0.433-1.589 0.134-0.738 0.19-1.4 0.169-1.986v0c0.001-0.077 0.038-0.122 0.113-0.137 0.07-0.019 0.113-0.018 0.129 0.003 0.02 0.027 0.03 0.062 0.03 0.105v0c0.056 0.364 0.05 0.891-0.02 1.581v0c-0.109 1.118-0.311 1.912-0.606 2.382v0c-0.332 0.49-0.642 0.756-0.933 0.798-0.285 0.038-0.506 0.003-0.665-0.105-0.159-0.108-0.291-0.232-0.397-0.372v0c-0.343-0.451-0.596-0.968-0.758-1.548-0.166-0.586-0.257-1.001-0.272-1.244v0c-0.251 0.428-0.418 0.856-0.5 1.283v0c-0.131 0.642-0.216 1.183-0.256 1.621v0l-0.052 0.535c0.073 0.275 0.013 0.508-0.181 0.698-0.19 0.196-0.346 0.204-0.466 0.023v0c-0.117-0.199-0.249-0.74-0.394-1.622-0.149-0.888-0.25-1.366-0.303-1.436-0.053-0.07-0.117-0.076-0.193-0.019v0c-0.172 0.131-0.335 0.564-0.487 1.3v0c-0.087 0.499-0.126 1.351-0.117 2.557 0.004 1.21-0.013 1.868-0.051 1.974v0c-0.213 0.434-0.363 0.683-0.449 0.748-0.086 0.065-0.139 0.085-0.16 0.058-0.02-0.027-0.04-0.08-0.058-0.16-0.013-0.084-0.351-1.137-1.016-3.159v0c0.036 0.482 0.033 0.874-0.008 1.177v0c-0.015 0.147-0.068 0.162-0.158 0.043-0.09-0.118-0.133-0.247-0.128-0.386v0c0.001-0.891-0.049-1.609-0.148-2.152v0c-0.194-0.378-0.228-0.662-0.101-0.852v0c0.074-0.115 0.194-0.207 0.363-0.276 0.168-0.069 0.289-0.055 0.363 0.042zM146.087 134.779v0c-0.204-0.451-0.399-0.755-0.586-0.91-0.181-0.151-0.344-0.252-0.487-0.302-0.138-0.045-0.211-0.137-0.219-0.275-0.013-0.143 0.041-0.265 0.161-0.367v0c0.202-0.148 0.488-0.068 0.856 0.24 0.368 0.307 0.669 0.927 0.901 1.86v0c0.258 0.197 0.49 0.172 0.698-0.077 0.208-0.249 0.257-0.85 0.146-1.804v0c-0.076-0.468-0.131-0.765-0.166-0.891-0.031-0.131-0.014-0.21 0.05-0.235 0.06-0.029 0.1-0.035 0.121-0.018v0c0.088 0.074 0.188 0.438 0.3 1.095v0c0.206 1.06 0.138 1.795-0.204 2.204v0c-0.221 0.264-0.493 0.358-0.816 0.282v0c0.04 0.342 0.07 0.67 0.089 0.985v0c0.007 0.613-0.173 1.14-0.54 1.58v0c-0.208 0.249-0.44 0.406-0.699 0.473v0c-0.47 0.162-0.953 0.036-1.45-0.38v0c-0.539-0.45-0.936-1.097-1.19-1.942v0c-0.159-0.484-0.244-0.973-0.254-1.465v0c-0.013-0.785 0.149-1.38 0.486-1.785v0c0.082-0.099 0.175-0.184 0.279-0.255v0c0.323-0.197 0.614-0.187 0.873 0.029v0c0.213 0.177 0.273 0.321 0.183 0.43v0c-0.06 0.029-0.149-0.006-0.269-0.106v0c-0.166-0.138-0.325-0.117-0.476 0.065v0c-0.273 0.327-0.323 0.988-0.152 1.984 0.162 0.997 0.5 1.798 1.015 2.404v0c0.086 0.098 0.191 0.199 0.315 0.302 0.124 0.104 0.304 0.183 0.54 0.239 0.23 0.051 0.438-0.035 0.624-0.257 0.19-0.228 0.295-0.559 0.313-0.992 0.018-0.443-0.04-0.9-0.174-1.372v0l-0.118-0.033c-0.18-0.08-0.284-0.197-0.312-0.353-0.033-0.15 0.021-0.268 0.162-0.353zM152.706 118.753v0c0.129-0.245 0.325-0.298 0.587-0.16 0.257 0.135 0.551 0.446 0.883 0.933 0.325 0.484 0.601 0.858 0.828 1.123v0c0.383 0.461 0.721 0.769 1.014 0.923 0.293 0.154 0.509 0.214 0.648 0.181v0c0.252-0.073 0.373-0.288 0.363-0.645-0.005-0.353-0.098-0.895-0.279-1.623-0.184-0.723-0.41-1.345-0.677-1.867v0c-0.032-0.07-0.017-0.127 0.044-0.172 0.055-0.047 0.095-0.064 0.119-0.052 0.03 0.016 0.053 0.043 0.071 0.083v0c0.205 0.306 0.422 0.787 0.649 1.441 0.225 0.645 0.375 1.231 0.449 1.758 0.068 0.524 0.004 0.971-0.191 1.342v0c-0.204 0.358-0.418 0.57-0.643 0.635-0.234 0.068-0.468 0.04-0.701-0.083-0.233-0.123-0.449-0.263-0.648-0.421-0.193-0.155-0.402-0.368-0.626-0.639v0c-0.363-0.427-0.632-0.779-0.807-1.054-0.181-0.279-0.311-0.438-0.389-0.479-0.084-0.044-0.147-0.024-0.191 0.059v0c-0.088 0.167-0.049 0.6 0.118 1.299v0c0.132 0.489 0.455 1.281 0.97 2.376 0.518 1.089 0.782 1.69 0.791 1.801v0c-0.01 0.483-0.04 0.772-0.09 0.868-0.05 0.096-0.09 0.136-0.12 0.12-0.03-0.016-0.07-0.048-0.121-0.098-0.047-0.055-0.282-0.312-0.704-0.771-0.422-0.459-0.888-0.959-1.396-1.501-0.505-0.548-0.808-0.879-0.908-0.993-0.106-0.117-0.201-0.205-0.285-0.265-0.08-0.065-0.147-0.127-0.2-0.185-0.05-0.049-0.102-0.126-0.153-0.23-0.046-0.101-0.047-0.2-0.003-0.299 0.044-0.099 0.121-0.215 0.229-0.348 0.099-0.131 0.203-0.168 0.31-0.112v0c0.072 0.038 0.203 0.179 0.395 0.425 0.188 0.252 0.869 1.038 2.044 2.358v0c-0.265-0.628-0.548-1.395-0.849-2.301-0.304-0.9-0.511-1.639-0.62-2.215v0c-0.076-0.551-0.047-0.955 0.089-1.212zM162.301 109.503v0c0.125 0.198 0.251 0.271 0.38 0.217 0.128-0.054 0.209-0.136 0.241-0.246 0.032-0.11 0.049-0.228 0.051-0.354v0c-0.005-0.536-0.159-1.102-0.462-1.698-0.31-0.598-0.695-0.964-1.156-1.099v0c-0.253-0.074-0.611 0.127-1.074 0.603v0c-0.22 0.224-0.345 0.349-0.374 0.376v0c-0.299 0.25-0.563 0.384-0.793 0.401v0c0.231 0.244 0.554 0.62 0.967 1.128v0c0.066 0.111 0.064 0.191-0.007 0.241-0.073 0.056-0.146 0.042-0.22-0.044v0c-0.509-0.663-0.962-1.134-1.359-1.412v0c-0.606-0.262-1.038-0.888-1.296-1.879-0.265-0.992-0.297-1.832-0.095-2.519v0c0.129-0.441 0.297-0.726 0.504-0.855 0.209-0.136 0.388-0.182 0.537-0.138 0.156 0.046 0.318 0.139 0.488 0.28 0.168 0.148 0.3 0.38 0.397 0.698v0c0.026 0.078-0.003 0.129-0.088 0.153v0c-0.079 0.005-0.159-0.071-0.239-0.228-0.089-0.153-0.231-0.279-0.427-0.379-0.198-0.093-0.352-0.036-0.462 0.171v0c-0.009 0.032-0.019 0.065-0.028 0.097v0c-0.133 0.454-0.13 1.067 0.009 1.84 0.133 0.771 0.41 1.422 0.831 1.953v0c0.151 0.206 0.326 0.339 0.527 0.398 0.201 0.059 0.422-0.024 0.664-0.249v0c0.105-0.096 0.274-0.261 0.505-0.496 0.229-0.228 0.396-0.391 0.501-0.486 0.099-0.098 0.247-0.206 0.444-0.324 0.203-0.116 0.367-0.16 0.492-0.13v0c0.361 0.042 0.693 0.312 0.997 0.81v0c0.443 0.721 0.628 1.651 0.554 2.79v0c-0.012 0.257-0.055 0.512-0.129 0.765-0.072 0.246-0.212 0.388-0.421 0.425v0c-0.061 0.017-0.141 0.012-0.237-0.017-0.097-0.029-0.229-0.166-0.397-0.412v0c-0.117-0.224-0.202-0.548-0.253-0.971v0c-0.002-0.043 0.013-0.07 0.045-0.082 0.027-0.02 0.058-0.018 0.093 0.006 0.029 0.022 0.049 0.095 0.063 0.219 0.013 0.123 0.089 0.272 0.227 0.447z" fill="#000000" data-fill-palette-color="accent"></path><path d="M12.478 64.101V64.101L13.063 62.871C13.166 62.592 13.217 62.366 13.217 62.193 13.214 62.027 13.238 61.913 13.289 61.853 13.34 61.792 13.382 61.826 13.414 61.953 13.446 62.08 13.436 62.271 13.385 62.526 13.336 62.774 13.315 62.928 13.322 62.988V62.988C13.473 62.814 13.664 62.629 13.895 62.434V62.434L14.894 61.659C14.298 61.092 13.82 60.671 13.462 60.394V60.394C13.472 60.484 13.463 60.596 13.435 60.729 13.407 60.863 13.349 60.914 13.26 60.881V60.881C13.171 60.848 13.13 60.746 13.135 60.575V60.575L13.176 60.115C12.662 59.695 12.036 59.207 11.298 58.653 10.56 58.099 10.185 57.819 10.172 57.815V57.815C8.016 56.152 6.725 54.922 6.3 54.124 5.874 53.332 5.652 52.667 5.635 52.128 5.619 51.589 5.655 51.199 5.744 50.958V50.958C5.993 50.287 6.456 49.854 7.133 49.658V49.658C7.599 49.528 8.11 49.566 8.668 49.773V49.773C9.719 50.162 10.634 50.908 11.414 52.01 12.188 53.11 12.745 54.299 13.085 55.578 13.429 56.864 13.59 58.123 13.567 59.353V59.353C14.325 60.066 14.932 60.701 15.388 61.258V61.258C17.353 59.783 18.62 58.686 19.188 57.967V57.967C19.852 57.147 20.341 56.313 20.655 55.465V55.465C21 54.534 21.032 53.671 20.75 52.875V52.875C20.608 52.462 20.397 52.204 20.119 52.101 19.84 51.998 19.573 51.96 19.318 51.988 19.063 52.016 18.949 51.963 18.977 51.83 19.005 51.696 19.109 51.619 19.289 51.6V51.6C19.777 51.564 20.243 51.629 20.686 51.793V51.793C20.762 51.821 20.838 51.849 20.914 51.877V51.877C21.397 52.071 21.743 52.45 21.95 53.017V53.017C22.193 53.683 22.119 54.545 21.728 55.602V55.602C21.465 56.312 21.139 56.9 20.75 57.368 20.36 57.836 20.048 58.203 19.813 58.469 19.578 58.734 19.225 59.046 18.753 59.405 18.285 59.757 17.949 60.003 17.745 60.144V60.144C17.351 60.43 16.643 60.902 15.622 61.561V61.561C16.524 62.644 16.88 63.442 16.69 63.955V63.955C16.644 64.082 16.593 64.149 16.539 64.158 16.486 64.167 16.443 64.148 16.41 64.099 16.384 64.054 16.378 64.012 16.392 63.974V63.974C16.511 63.536 16.097 62.846 15.149 61.904V61.904C14.416 62.446 13.877 62.928 13.534 63.348V63.348C13.552 63.844 13.531 64.175 13.47 64.339 13.409 64.504 13.363 64.609 13.331 64.655V64.655C13.175 64.842 13.003 64.901 12.813 64.83V64.83C12.547 64.732 12.43 64.502 12.464 64.139V64.139C12.464 64.139 12.468 64.127 12.478 64.101ZM8.018 50.418V50.418C7.056 50.061 6.441 50.244 6.174 50.966V50.966C5.934 51.612 6.06 52.285 6.549 52.985V52.985C7.071 53.754 7.597 54.366 8.127 54.822 8.66 55.286 9.054 55.622 9.308 55.831V55.831C9.923 56.347 10.497 56.783 11.028 57.138V57.138C12.038 57.987 12.733 58.59 13.112 58.947V58.947C12.989 57.238 12.559 55.646 11.824 54.171 11.088 52.696 10.057 51.562 8.731 50.768V50.768C8.484 50.619 8.246 50.502 8.018 50.418ZM20.425 43.292V43.292C20.12 42.821 19.852 42.514 19.621 42.374 19.391 42.233 19.193 42.148 19.029 42.119 18.865 42.09 18.767 41.998 18.734 41.844 18.702 41.689 18.743 41.544 18.858 41.409V41.409C19.056 41.213 19.386 41.256 19.847 41.538 20.308 41.82 20.75 42.462 21.174 43.465V43.465C21.492 43.643 21.747 43.577 21.937 43.266 22.127 42.955 22.081 42.278 21.8 41.236V41.236C21.635 40.716 21.524 40.386 21.466 40.248 21.408 40.11 21.411 40.021 21.475 39.981 21.539 39.941 21.582 39.928 21.605 39.942V39.942C21.721 40.012 21.895 40.407 22.127 41.127V41.127C22.533 42.277 22.581 43.105 22.271 43.612V43.612C22.067 43.947 21.778 44.095 21.406 44.057V44.057C21.507 44.436 21.594 44.798 21.668 45.143V45.143C21.774 45.825 21.656 46.445 21.315 47.004V47.004C21.124 47.316 20.891 47.529 20.615 47.645V47.645C20.126 47.901 19.571 47.838 18.948 47.458V47.458C18.268 47.043 17.715 46.388 17.288 45.494V45.494C17.035 44.976 16.862 44.443 16.769 43.895V43.895C16.622 43.022 16.703 42.332 17.013 41.825V41.825C17.09 41.698 17.182 41.588 17.287 41.493V41.493C17.613 41.218 17.938 41.179 18.26 41.376V41.376C18.525 41.538 18.616 41.688 18.531 41.826V41.826C18.473 41.87 18.369 41.846 18.219 41.754V41.754C18.012 41.628 17.838 41.68 17.697 41.91V41.91C17.45 42.313 17.502 43.057 17.853 44.142 18.2 45.232 18.712 46.071 19.389 46.659V46.659C19.502 46.76 19.636 46.857 19.792 46.952 19.947 47.047 20.157 47.105 20.422 47.124 20.688 47.144 20.906 47.012 21.079 46.73 21.255 46.442 21.318 46.053 21.269 45.564 21.219 45.075 21.08 44.578 20.85 44.074V44.074L20.714 44.062C20.502 43.996 20.366 43.881 20.307 43.718 20.248 43.556 20.288 43.414 20.425 43.292ZM25.708 32.372V32.372C25.234 31.93 24.868 31.846 24.61 32.123V32.123C24.555 32.182 24.505 32.25 24.459 32.328 24.414 32.406 24.372 32.427 24.332 32.39 24.293 32.353 24.271 32.277 24.267 32.163V32.163C24.273 32.057 24.423 31.818 24.716 31.445V31.445C25.108 31.026 25.412 30.82 25.627 30.827 25.842 30.834 26.009 30.893 26.128 31.004 26.246 31.114 26.454 31.48 26.752 32.101 27.045 32.726 27.197 33.053 27.208 33.082V33.082C27.824 34.212 28.259 34.869 28.514 35.051V35.051C28.15 33.038 27.949 31.755 27.911 31.202V31.202C27.814 30.02 27.763 29.196 27.757 28.728V28.728C27.759 27.657 27.872 26.815 28.095 26.201V26.201C28.165 26.026 28.247 25.89 28.339 25.791V25.791C28.643 25.466 28.949 25.336 29.257 25.402V25.402C29.344 25.409 29.409 25.433 29.453 25.474 29.498 25.516 29.536 25.579 29.567 25.664 29.599 25.749 29.545 25.801 29.407 25.82 29.27 25.839 29.071 25.986 28.813 26.263V26.263C28.384 26.721 28.205 27.982 28.274 30.043V30.043C28.335 31.302 28.477 32.54 28.7 33.755 28.912 34.971 29.153 35.742 29.422 36.067V36.067C29.501 36.141 29.471 36.252 29.333 36.4 29.195 36.548 29.029 36.601 28.837 36.56 28.644 36.518 28.506 36.459 28.422 36.38 28.338 36.302 28.269 36.228 28.214 36.158 28.159 36.088 27.889 35.65 27.403 34.845 26.913 34.035 26.582 33.504 26.411 33.252V33.252C26.498 33.554 26.59 33.946 26.687 34.425V34.425C26.701 34.568 26.67 34.645 26.594 34.657 26.518 34.669 26.465 34.662 26.436 34.634 26.406 34.606 26.381 34.564 26.36 34.507V34.507C26.18 33.563 25.963 32.851 25.708 32.372ZM38.365 19.091V19.091C38.95 18.656 39.453 18.72 39.872 19.283V19.283C40.089 19.576 40.185 19.875 40.16 20.18V20.18C40.187 20.782 40.008 21.458 39.623 22.208 39.242 22.962 38.852 23.513 38.454 23.86V23.86C38.304 23.988 38.188 24.007 38.105 23.917V23.917C38.062 23.882 38.055 23.845 38.085 23.806 38.115 23.767 38.141 23.739 38.162 23.723V23.723C38.401 23.512 38.633 23.15 38.858 22.638V22.638C39.293 21.708 39.526 20.912 39.556 20.25V20.25C39.552 19.951 39.483 19.711 39.35 19.532 39.217 19.354 39.064 19.329 38.891 19.458V19.458C38.75 19.562 38.604 19.763 38.455 20.06V20.06C38.123 20.677 37.894 21.49 37.77 22.5 37.645 23.519 37.705 24.375 37.95 25.067V25.067C38.025 25.281 38.125 25.472 38.25 25.64 38.375 25.808 38.564 25.915 38.818 25.962 39.072 26.009 39.345 25.924 39.637 25.706V25.706C39.968 25.46 40.28 25.094 40.574 24.606V24.606C41.427 23.197 41.808 21.74 41.715 20.235V20.235C41.716 20.1 41.763 20.039 41.858 20.053V20.053C41.917 20.042 41.959 20.053 41.983 20.086 42.008 20.118 42.019 20.168 42.019 20.236V20.236C42.101 21.025 42.05 21.816 41.866 22.61V22.61C41.514 24.15 40.883 25.259 39.973 25.936V25.936C39.187 26.521 38.464 26.697 37.803 26.465V26.465C37.547 26.369 37.322 26.191 37.128 25.931 36.935 25.671 36.776 25.31 36.651 24.847V24.847C36.458 24.023 36.567 22.953 36.978 21.638 37.383 20.327 37.845 19.478 38.365 19.091ZM73.764 2.68V2.68C73.446 2.745 72.975 2.601 72.351 2.247V2.247C72.405 2.443 72.454 2.647 72.497 2.858V2.858C72.717 3.923 72.772 5.26 72.663 6.868 72.555 8.483 72.203 10.021 71.609 11.481 71.02 12.94 70.283 13.761 69.397 13.944V13.944C68.656 14.097 67.958 13.937 67.302 13.466 66.64 12.996 66.073 12.32 65.601 11.438V11.438C64.729 9.75 64.08 7.874 63.654 5.811V5.811C63.235 8.393 62.77 10.547 62.257 12.273V12.273C61.362 15.05 60.307 16.774 59.094 17.445V17.445C58.786 17.619 58.499 17.734 58.234 17.788 57.97 17.843 57.733 17.864 57.524 17.852V17.852C56.935 17.774 56.518 17.47 56.271 16.942V16.942C56.244 16.879 56.225 16.821 56.214 16.768 56.203 16.715 56.196 16.647 56.193 16.565 56.19 16.483 56.225 16.452 56.298 16.471 56.371 16.491 56.462 16.599 56.572 16.797V16.797C56.738 17.135 57.019 17.312 57.415 17.326V17.326C57.654 17.346 57.879 17.334 58.09 17.291 58.302 17.247 58.5 17.171 58.685 17.064V17.064C59.873 16.406 60.858 14.816 61.641 12.297V12.297C62.159 10.459 62.55 7.945 62.815 4.753V4.753C62.224 5.564 61.44 6.109 60.463 6.386V6.386C60.327 6.428 60.244 6.394 60.214 6.282 60.186 6.178 60.251 6.095 60.411 6.035V6.035C60.969 5.865 61.496 5.446 61.993 4.778 62.489 4.11 62.817 3.394 62.977 2.63V2.63C62.994 2.447 63.209 2.317 63.62 2.239 64.031 2.161 64.247 2.203 64.266 2.364V2.364C64.244 2.521 64.256 2.883 64.305 3.453 64.353 4.022 64.434 4.577 64.546 5.12V5.12C65.027 7.454 65.847 9.574 67.006 11.479V11.479C67.819 12.814 68.623 13.4 69.416 13.236 70.21 13.073 70.807 12.225 71.208 10.695 71.615 9.156 71.806 7.679 71.783 6.263 71.76 4.848 71.691 3.862 71.576 3.307 71.463 2.758 71.352 2.353 71.243 2.093 71.134 1.833 70.836 1.291 70.349 0.468V0.468C70.328 0.431 70.36 0.352 70.445 0.231 70.531 0.11 70.598 0.037 70.649 0.013V0.013C70.9-0.039 71.166 0.065 71.447 0.324 71.728 0.583 72.023 0.894 72.333 1.258V1.258C72.869 1.92 73.303 2.216 73.633 2.148V2.148L73.859 2.039C73.978 2.015 74.065 2.066 74.118 2.193V2.193C74.14 2.299 74.112 2.397 74.035 2.489 73.957 2.581 73.867 2.645 73.764 2.68ZM94.582 10.128V10.128L95.874 10.561C96.163 10.63 96.393 10.654 96.565 10.633 96.73 10.609 96.846 10.62 96.912 10.663 96.978 10.707 96.949 10.752 96.827 10.799 96.705 10.846 96.514 10.86 96.255 10.84 96.003 10.821 95.847 10.819 95.788 10.833V10.833C95.98 10.961 96.186 11.129 96.408 11.334V11.334L97.297 12.234C97.788 11.573 98.149 11.049 98.381 10.66V10.66C98.292 10.68 98.18 10.685 98.044 10.673 97.908 10.662 97.851 10.61 97.873 10.518V10.518C97.895 10.426 97.991 10.372 98.161 10.357V10.357L98.623 10.343C98.979 9.782 99.388 9.102 99.849 8.303 100.311 7.503 100.543 7.097 100.546 7.084V7.084C101.938 4.743 103.004 3.314 103.745 2.797 104.48 2.278 105.114 1.978 105.647 1.897 106.18 1.816 106.571 1.805 106.821 1.865V1.865C107.517 2.031 108.003 2.439 108.279 3.087V3.087C108.464 3.534 108.487 4.047 108.349 4.625V4.625C108.089 5.715 107.459 6.713 106.458 7.62 105.459 8.52 104.345 9.216 103.117 9.707 101.881 10.204 100.651 10.514 99.427 10.639V10.639C98.81 11.477 98.253 12.156 97.754 12.676V12.676C99.455 14.45 100.696 15.575 101.478 16.053V16.053C102.371 16.614 103.258 16.999 104.138 17.209V17.209C105.104 17.439 105.965 17.367 106.721 16.992V16.992C107.113 16.801 107.344 16.561 107.413 16.272 107.482 15.983 107.487 15.714 107.429 15.464 107.37 15.214 107.409 15.095 107.545 15.106 107.681 15.118 107.77 15.212 107.811 15.388V15.388C107.905 15.869 107.897 16.339 107.787 16.799V16.799C107.768 16.878 107.75 16.957 107.731 17.035V17.035C107.597 17.538 107.261 17.926 106.724 18.201V18.201C106.092 18.522 105.227 18.552 104.13 18.29V18.29C103.395 18.115 102.771 17.862 102.26 17.531 101.749 17.201 101.347 16.935 101.055 16.734 100.763 16.532 100.411 16.219 99.998 15.794 99.592 15.371 99.307 15.067 99.143 14.882V14.882C98.812 14.525 98.258 13.879 97.481 12.944V12.944C96.515 13.97 95.765 14.42 95.233 14.293V14.293C95.102 14.261 95.029 14.22 95.013 14.167 94.998 14.115 95.012 14.07 95.056 14.032 95.098 14 95.139 13.989 95.178 13.998V13.998C95.628 14.064 96.263 13.57 97.084 12.516V12.516C96.458 11.853 95.915 11.377 95.457 11.087V11.087C94.966 11.164 94.636 11.182 94.465 11.142 94.294 11.101 94.184 11.068 94.135 11.042V11.042C93.93 10.91 93.851 10.745 93.898 10.548V10.548C93.964 10.272 94.179 10.129 94.542 10.119V10.119C94.542 10.119 94.555 10.122 94.582 10.128ZM107.631 4.057V4.057C107.869 3.059 107.614 2.471 106.865 2.292V2.292C106.195 2.132 105.542 2.337 104.906 2.907V2.907C104.205 3.518 103.66 4.113 103.272 4.694 102.875 5.28 102.588 5.711 102.411 5.988V5.988C101.973 6.661 101.609 7.282 101.321 7.852V7.852C100.599 8.957 100.084 9.719 99.775 10.139V10.139C101.457 9.811 102.986 9.194 104.362 8.286 105.738 7.379 106.74 6.219 107.369 4.807V4.807C107.487 4.544 107.574 4.294 107.631 4.057ZM118.166 12.364V12.364C118.83 12.666 119.018 13.136 118.727 13.776V13.776C118.577 14.108 118.362 14.336 118.083 14.462V14.462C117.569 14.778 116.891 14.948 116.049 14.974 115.204 15.006 114.533 14.932 114.037 14.751V14.751C113.853 14.683 113.78 14.59 113.818 14.474V14.474C113.828 14.419 113.857 14.396 113.905 14.403 113.954 14.41 113.991 14.419 114.015 14.43V14.43C114.316 14.537 114.744 14.564 115.301 14.513V14.513C116.326 14.444 117.135 14.262 117.728 13.968V13.968C117.989 13.819 118.165 13.643 118.257 13.44 118.349 13.237 118.297 13.091 118.1 13.002V13.002C117.94 12.929 117.694 12.899 117.362 12.912V12.912C116.661 12.92 115.839 13.115 114.895 13.495 113.943 13.879 113.223 14.346 112.737 14.896V14.896C112.586 15.065 112.467 15.245 112.381 15.435 112.294 15.626 112.292 15.844 112.374 16.088 112.456 16.333 112.663 16.531 112.995 16.681V16.681C113.37 16.851 113.842 16.947 114.411 16.967V16.967C116.057 17.032 117.516 16.659 118.788 15.849V15.849C118.906 15.785 118.982 15.797 119.016 15.886V15.886C119.054 15.933 119.065 15.975 119.048 16.012 119.031 16.049 118.993 16.083 118.934 16.116V16.116C118.283 16.57 117.566 16.908 116.783 17.131V17.131C115.265 17.57 113.989 17.555 112.956 17.086V17.086C112.064 16.682 111.56 16.134 111.443 15.444V15.444C111.402 15.173 111.449 14.89 111.583 14.595 111.717 14.3 111.956 13.986 112.3 13.652V13.652C112.928 13.085 113.917 12.662 115.266 12.384 116.609 12.103 117.576 12.097 118.166 12.365ZM128.83 19.505V19.505C128.773 19.581 128.589 19.7 128.279 19.863 127.968 20.026 126.965 20.637 125.269 21.698V21.698C126.021 21.523 126.932 21.346 128.001 21.166V21.166C130.143 20.825 131.439 20.826 131.891 21.169V21.169C131.988 21.242 132.061 21.341 132.112 21.464 132.162 21.587 132.116 21.743 131.973 21.931 131.83 22.119 131.612 22.284 131.318 22.425 131.024 22.567 130.675 22.747 130.271 22.966 129.868 23.185 129.604 23.32 129.481 23.371V23.371C131.015 23.238 132.08 23.259 132.677 23.432 133.275 23.606 133.649 23.75 133.799 23.865 133.95 23.979 133.984 24.09 133.902 24.197V24.197C133.853 24.262 133.654 24.357 133.305 24.481 132.956 24.606 132.501 24.837 131.94 25.174 131.374 25.517 131.007 25.776 130.839 25.954 130.67 26.131 130.529 26.295 130.415 26.445 130.3 26.596 130.249 26.752 130.262 26.914V26.914C130.293 27.209 130.505 27.387 130.899 27.449 131.293 27.511 131.911 27.506 132.755 27.434 133.598 27.362 134.335 27.223 134.967 27.016V27.016C135.051 26.995 135.112 27.02 135.151 27.092 135.195 27.168 135.207 27.219 135.187 27.246 135.166 27.273 135.133 27.294 135.087 27.31V27.31C134.696 27.479 134.119 27.63 133.356 27.764V27.764C132.104 27.983 131.182 28.003 130.589 27.824V27.824C129.952 27.612 129.57 27.356 129.443 27.055 129.315 26.755 129.285 26.503 129.354 26.301 129.423 26.099 129.518 25.917 129.641 25.756V25.756C130.025 25.25 130.51 24.818 131.097 24.458 131.68 24.104 132.1 23.88 132.357 23.787V23.787C131.818 23.649 131.302 23.596 130.81 23.63V23.63C130.071 23.687 129.457 23.759 128.968 23.846V23.846L128.375 23.955C128.099 24.119 127.827 24.124 127.561 23.973 127.294 23.821 127.24 23.653 127.398 23.467V23.467C127.575 23.279 128.123 22.971 129.042 22.541 129.958 22.117 130.446 21.865 130.508 21.785 130.569 21.704 130.556 21.631 130.47 21.566V21.566C130.277 21.418 129.76 21.374 128.919 21.431V21.431C128.349 21.489 127.408 21.707 126.096 22.084 124.782 22.452 124.062 22.63 123.935 22.618V22.618C123.401 22.518 123.085 22.431 122.988 22.357 122.892 22.284 122.855 22.231 122.88 22.198 122.904 22.166 122.957 22.13 123.039 22.09 123.12 22.05 124.161 21.361 126.161 20.022V20.022C125.642 20.214 125.213 20.333 124.872 20.379V20.379C124.713 20.411 124.684 20.359 124.786 20.225 124.888 20.09 125.015 20 125.168 19.955V19.955C126.134 19.688 126.898 19.42 127.458 19.151V19.151C127.809 18.823 128.108 18.703 128.356 18.79V18.79C128.507 18.836 128.644 18.941 128.767 19.102 128.891 19.263 128.911 19.398 128.83 19.505ZM142.381 36.123V36.123C142.925 35.986 143.301 35.83 143.509 35.657 143.716 35.484 143.86 35.324 143.94 35.178 144.02 35.032 144.139 34.969 144.295 34.987 144.452 35.006 144.576 35.092 144.668 35.244V35.244C144.789 35.495 144.642 35.793 144.227 36.139 143.813 36.485 143.062 36.698 141.976 36.777V36.777C141.705 37.021 141.686 37.283 141.92 37.563 142.153 37.843 142.809 38.017 143.886 38.086V38.086C144.432 38.097 144.779 38.097 144.929 38.087 145.078 38.076 145.162 38.108 145.179 38.181 145.197 38.255 145.195 38.3 145.174 38.317V38.317C145.07 38.404 144.64 38.442 143.884 38.431V38.431C142.665 38.446 141.865 38.225 141.484 37.768V37.768C141.233 37.468 141.186 37.147 141.341 36.806V36.806C140.95 36.781 140.579 36.747 140.228 36.706V36.706C139.549 36.587 138.999 36.276 138.579 35.773V35.773C138.346 35.493 138.218 35.204 138.197 34.905V34.905C138.112 34.36 138.35 33.854 138.91 33.387V33.387C139.521 32.876 140.319 32.562 141.303 32.445V32.445C141.875 32.372 142.436 32.379 142.984 32.467V32.467C143.858 32.608 144.485 32.907 144.866 33.363V33.363C144.961 33.477 145.037 33.599 145.092 33.729V33.729C145.248 34.127 145.181 34.446 144.89 34.689V34.689C144.652 34.888 144.481 34.925 144.377 34.801V34.801C144.354 34.731 144.411 34.641 144.545 34.528V34.528C144.732 34.372 144.739 34.191 144.566 33.983V33.983C144.263 33.621 143.542 33.431 142.402 33.414 141.258 33.393 140.299 33.608 139.525 34.061V34.061C139.393 34.135 139.258 34.231 139.118 34.348 138.978 34.464 138.856 34.645 138.752 34.89 138.649 35.135 138.703 35.384 138.915 35.638 139.131 35.897 139.479 36.082 139.958 36.192 140.437 36.303 140.952 36.33 141.504 36.274V36.274L141.558 36.15C141.69 35.97 141.842 35.878 142.015 35.875 142.188 35.871 142.31 35.954 142.381 36.123ZM154.246 48.119V48.119C154.39 48.394 154.317 48.608 154.024 48.763 153.731 48.917 153.256 48.992 152.597 48.988 151.938 48.984 151.41 49.003 151.013 49.045V49.045C150.343 49.108 149.844 49.226 149.516 49.399 149.187 49.573 148.995 49.735 148.938 49.888V49.888C148.841 50.168 148.961 50.417 149.298 50.637 149.635 50.856 150.198 51.112 150.987 51.406 151.779 51.706 152.505 51.896 153.165 51.975V51.975C153.25 51.992 153.295 52.041 153.299 52.122 153.304 52.203 153.292 52.252 153.262 52.268 153.232 52.284 153.193 52.289 153.144 52.284V52.284C152.721 52.278 152.136 52.174 151.389 51.973 150.638 51.766 149.997 51.528 149.466 51.258 148.934 50.989 148.558 50.645 148.338 50.227V50.227C148.135 49.814 148.077 49.479 148.162 49.22 148.247 48.962 148.421 48.763 148.684 48.625 148.946 48.486 149.213 48.376 149.483 48.295 149.753 48.213 150.084 48.153 150.476 48.115V48.115C151.109 48.055 151.611 48.031 151.983 48.041 152.355 48.051 152.585 48.033 152.675 47.985 152.765 47.938 152.784 47.867 152.734 47.771V47.771C152.633 47.58 152.208 47.338 151.458 47.047V47.047C150.917 46.859 149.97 46.656 148.618 46.438 147.275 46.222 146.549 46.082 146.439 46.018V46.018C145.997 45.702 145.748 45.489 145.691 45.382 145.634 45.274 145.624 45.211 145.66 45.192 145.695 45.173 145.752 45.159 145.831 45.148 145.909 45.137 146.296 45.082 146.992 44.982 147.687 44.883 148.452 44.769 149.286 44.643 150.114 44.519 150.614 44.446 150.785 44.424 150.957 44.402 151.098 44.374 151.209 44.338 151.32 44.302 151.418 44.278 151.502 44.264 151.587 44.25 151.691 44.252 151.815 44.271 151.939 44.289 152.033 44.35 152.095 44.455 152.158 44.559 152.22 44.706 152.282 44.895 152.34 45.078 152.31 45.201 152.19 45.264V45.264C152.106 45.308 151.89 45.338 151.54 45.355 151.186 45.366 150.019 45.497 148.037 45.748V45.748C148.789 45.901 149.687 46.126 150.729 46.424 151.762 46.718 152.578 46.998 153.176 47.263V47.263C153.738 47.547 154.094 47.832 154.246 48.119ZM152.938 60.176V60.176C152.694 60.065 152.528 60.076 152.44 60.207 152.353 60.339 152.327 60.466 152.364 60.589 152.4 60.712 152.457 60.833 152.534 60.951V60.951C152.868 61.458 153.363 61.902 154.019 62.285 154.673 62.661 155.259 62.773 155.777 62.619V62.619C156.062 62.534 156.282 62.124 156.436 61.388V61.388C156.503 61.044 156.544 60.848 156.558 60.802V60.802C156.685 60.377 156.852 60.084 157.058 59.924V59.924C156.694 59.835 156.157 59.678 155.449 59.451V59.451C155.319 59.391 155.271 59.314 155.306 59.219 155.341 59.124 155.42 59.094 155.543 59.128V59.128C156.432 59.441 157.148 59.609 157.69 59.631V59.631C158.429 59.51 159.224 59.841 160.077 60.624 160.927 61.399 161.467 62.176 161.698 62.953V62.953C161.844 63.445 161.86 63.817 161.744 64.069 161.629 64.322 161.487 64.473 161.319 64.523 161.151 64.573 160.942 64.582 160.693 64.551 160.444 64.519 160.179 64.383 159.896 64.143V64.143C159.821 64.081 159.815 64.012 159.877 63.937V63.937C159.947 63.888 160.07 63.911 160.247 64.007 160.423 64.103 160.633 64.135 160.878 64.105 161.122 64.074 161.234 63.929 161.213 63.667V63.667C161.201 63.628 161.19 63.59 161.178 63.551V63.551C161.028 63.046 160.653 62.47 160.053 61.825 159.452 61.179 158.791 60.731 158.069 60.48V60.48C157.797 60.371 157.547 60.35 157.321 60.417 157.094 60.484 156.937 60.703 156.85 61.074V61.074C156.811 61.227 156.754 61.484 156.678 61.844 156.601 62.205 156.541 62.463 156.495 62.617 156.456 62.77 156.379 62.961 156.264 63.193 156.15 63.424 156.023 63.567 155.885 63.622V63.622C155.516 63.802 155.035 63.748 154.442 63.459V63.459C153.588 63.051 152.845 62.282 152.214 61.152V61.152C152.068 60.899 151.954 60.634 151.872 60.355 151.789 60.077 151.836 59.855 152.012 59.69V59.69C152.052 59.636 152.128 59.593 152.238 59.56 152.348 59.527 152.556 59.578 152.864 59.712V59.712C153.116 59.848 153.396 60.103 153.704 60.477V60.477C153.728 60.512 153.731 60.546 153.713 60.58 153.695 60.613 153.665 60.629 153.622 60.628 153.579 60.627 153.514 60.572 153.425 60.464 153.337 60.357 153.175 60.261 152.938 60.176Z" fill="#000000" data-fill-palette-color="accent"></path><path d="M1.108 83.717c0-2.539 2.058-4.597 4.597-4.597 2.539 0 4.597 2.058 4.597 4.597 0 2.539-2.058 4.597-4.597 4.597-2.539 0-4.597-2.058-4.597-4.597zM157.15 83.717c0-2.539 2.058-4.597 4.597-4.597 2.539 0 4.597 2.058 4.597 4.597 0 2.539-2.058 4.597-4.597 4.597-2.539 0-4.597-2.058-4.597-4.597z" fill="#000000" data-fill-palette-color="accent"></path></svg></g></svg></g></svg></g><defs></defs></svg><rect width="395.52" height="110.49617789495177" fill="none" stroke="none" visibility="hidden"></rect></g></svg></g></svg>